<svg xmlns="http://www.w3.org/2000/svg" xmlns:xlink="http://www.w3.org/1999/xlink" xmlns:jfreesvg="http://www.jfree.org/jfreesvg/svg" width="400" height="400" text-rendering="auto" shape-rendering="auto">
<defs></defs>
<rect x="0" y="0" width="400" height="400" style="fill: rgb(255,255,255); fill-opacity: 1.0" transform="matrix(1,0,0,1,0,0)" /><rect x="0" y="398.67" width="400" height="1.33" style="fill: rgb(174,28,40); fill-opacity: 1.0" transform="matrix(1,0,0,1,0,0)" /><rect x="0" y="397.33" width="400" height="1.33" style="fill: rgb(33,70,139); fill-opacity: 1.0" transform="matrix(1,0,0,1,0,0)" /><rect x="0" y="396" width="400" height="1.33" style="fill: rgb(255,255,255); fill-opacity: 1.0" transform="matrix(1,0,0,1,0,0)" /><rect x="0" y="394.67" width="400" height="1.33" style="fill: rgb(255,255,255); fill-opacity: 1.0" transform="matrix(1,0,0,1,0,0)" /><rect x="0" y="393.33" width="400" height="1.33" style="fill: rgb(255,255,255); fill-opacity: 1.0" transform="matrix(1,0,0,1,0,0)" /><rect x="0" y="392" width="400" height="1.33" style="fill: rgb(33,70,139); fill-opacity: 1.0" transform="matrix(1,0,0,1,0,0)" /><rect x="0" y="390.67" width="400" height="1.33" style="fill: rgb(255,255,255); fill-opacity: 1.0" transform="matrix(1,0,0,1,0,0)" /><rect x="0" y="389.33" width="400" height="1.33" style="fill: rgb(174,28,40); fill-opacity: 1.0" transform="matrix(1,0,0,1,0,0)" /><rect x="0" y="388" width="400" height="1.33" style="fill: rgb(174,28,40); fill-opacity: 1.0" transform="matrix(1,0,0,1,0,0)" /><rect x="0" y="386.67" width="400" height="1.33" style="fill: rgb(174,28,40); fill-opacity: 1.0" transform="matrix(1,0,0,1,0,0)" /><rect x="0" y="385.33" width="400" height="1.33" style="fill: rgb(33,70,139); fill-opacity: 1.0" transform="matrix(1,0,0,1,0,0)" /><rect x="0" y="384" width="400" height="1.33" style="fill: rgb(33,70,139); fill-opacity: 1.0" transform="matrix(1,0,0,1,0,0)" /><rect x="0" y="382.67" width="400" height="1.33" style="fill: rgb(33,70,139); fill-opacity: 1.0" transform="matrix(1,0,0,1,0,0)" /><rect x="0" y="381.33" width="400" height="1.33" style="fill: rgb(33,70,139); fill-opacity: 1.0" transform="matrix(1,0,0,1,0,0)" /><rect x="0" y="380" width="400" height="1.33" style="fill: rgb(255,255,255); fill-opacity: 1.0" transform="matrix(1,0,0,1,0,0)" /><rect x="0" y="378.67" width="400" height="1.33" style="fill: rgb(174,28,40); fill-opacity: 1.0" transform="matrix(1,0,0,1,0,0)" /><rect x="0" y="377.33" width="400" height="1.33" style="fill: rgb(33,70,139); fill-opacity: 1.0" transform="matrix(1,0,0,1,0,0)" /><rect x="0" y="376" width="400" height="1.33" style="fill: rgb(255,255,255); fill-opacity: 1.0" transform="matrix(1,0,0,1,0,0)" /><rect x="0" y="374.67" width="400" height="1.33" style="fill: rgb(255,255,255); fill-opacity: 1.0" transform="matrix(1,0,0,1,0,0)" /><rect x="0" y="373.33" width="400" height="1.33" style="fill: rgb(174,28,40); fill-opacity: 1.0" transform="matrix(1,0,0,1,0,0)" /><rect x="0" y="372" width="400" height="1.33" style="fill: rgb(174,28,40); fill-opacity: 1.0" transform="matrix(1,0,0,1,0,0)" /><rect x="0" y="370.67" width="400" height="1.33" style="fill: rgb(255,255,255); fill-opacity: 1.0" transform="matrix(1,0,0,1,0,0)" /><rect x="0" y="369.33" width="400" height="1.33" style="fill: rgb(174,28,40); fill-opacity: 1.0" transform="matrix(1,0,0,1,0,0)" /><rect x="0" y="368" width="400" height="1.33" style="fill: rgb(174,28,40); fill-opacity: 1.0" transform="matrix(1,0,0,1,0,0)" /><rect x="0" y="366.67" width="400" height="1.33" style="fill: rgb(174,28,40); fill-opacity: 1.0" transform="matrix(1,0,0,1,0,0)" /><rect x="0" y="365.33" width="400" height="1.33" style="fill: rgb(174,28,40); fill-opacity: 1.0" transform="matrix(1,0,0,1,0,0)" /><rect x="0" y="364" width="400" height="1.33" style="fill: rgb(255,255,255); fill-opacity: 1.0" transform="matrix(1,0,0,1,0,0)" /><rect x="0" y="362.67" width="400" height="1.33" style="fill: rgb(174,28,40); fill-opacity: 1.0" transform="matrix(1,0,0,1,0,0)" /><rect x="0" y="361.33" width="400" height="1.33" style="fill: rgb(33,70,139); fill-opacity: 1.0" transform="matrix(1,0,0,1,0,0)" /><rect x="0" y="360" width="400" height="1.33" style="fill: rgb(33,70,139); fill-opacity: 1.0" transform="matrix(1,0,0,1,0,0)" /><rect x="0" y="358.67" width="400" height="1.33" style="fill: rgb(174,28,40); fill-opacity: 1.0" transform="matrix(1,0,0,1,0,0)" /><rect x="0" y="357.33" width="400" height="1.33" style="fill: rgb(174,28,40); fill-opacity: 1.0" transform="matrix(1,0,0,1,0,0)" /><rect x="0" y="356" width="400" height="1.33" style="fill: rgb(174,28,40); fill-opacity: 1.0" transform="matrix(1,0,0,1,0,0)" /><rect x="0" y="354.67" width="400" height="1.33" style="fill: rgb(33,70,139); fill-opacity: 1.0" transform="matrix(1,0,0,1,0,0)" /><rect x="0" y="353.33" width="400" height="1.33" style="fill: rgb(255,255,255); fill-opacity: 1.0" transform="matrix(1,0,0,1,0,0)" /><rect x="0" y="352" width="400" height="1.33" style="fill: rgb(33,70,139); fill-opacity: 1.0" transform="matrix(1,0,0,1,0,0)" /><rect x="0" y="350.67" width="400" height="1.33" style="fill: rgb(33,70,139); fill-opacity: 1.0" transform="matrix(1,0,0,1,0,0)" /><rect x="0" y="349.33" width="400" height="1.33" style="fill: rgb(255,255,255); fill-opacity: 1.0" transform="matrix(1,0,0,1,0,0)" /><rect x="0" y="348" width="400" height="1.33" style="fill: rgb(255,255,255); fill-opacity: 1.0" transform="matrix(1,0,0,1,0,0)" /><rect x="0" y="346.67" width="400" height="1.33" style="fill: rgb(174,28,40); fill-opacity: 1.0" transform="matrix(1,0,0,1,0,0)" /><rect x="0" y="345.33" width="400" height="1.33" style="fill: rgb(174,28,40); fill-opacity: 1.0" transform="matrix(1,0,0,1,0,0)" /><rect x="0" y="344" width="400" height="1.33" style="fill: rgb(174,28,40); fill-opacity: 1.0" transform="matrix(1,0,0,1,0,0)" /><rect x="0" y="342.67" width="400" height="1.33" style="fill: rgb(255,255,255); fill-opacity: 1.0" transform="matrix(1,0,0,1,0,0)" /><rect x="0" y="341.33" width="400" height="1.33" style="fill: rgb(33,70,139); fill-opacity: 1.0" transform="matrix(1,0,0,1,0,0)" /><rect x="0" y="340" width="400" height="1.33" style="fill: rgb(33,70,139); fill-opacity: 1.0" transform="matrix(1,0,0,1,0,0)" /><rect x="0" y="338.67" width="400" height="1.33" style="fill: rgb(174,28,40); fill-opacity: 1.0" transform="matrix(1,0,0,1,0,0)" /><rect x="0" y="337.33" width="400" height="1.33" style="fill: rgb(33,70,139); fill-opacity: 1.0" transform="matrix(1,0,0,1,0,0)" /><rect x="0" y="336" width="400" height="1.33" style="fill: rgb(174,28,40); fill-opacity: 1.0" transform="matrix(1,0,0,1,0,0)" /><rect x="0" y="334.67" width="400" height="1.33" style="fill: rgb(174,28,40); fill-opacity: 1.0" transform="matrix(1,0,0,1,0,0)" /><rect x="0" y="333.33" width="400" height="1.33" style="fill: rgb(174,28,40); fill-opacity: 1.0" transform="matrix(1,0,0,1,0,0)" /><rect x="0" y="332" width="400" height="1.33" style="fill: rgb(33,70,139); fill-opacity: 1.0" transform="matrix(1,0,0,1,0,0)" /><rect x="0" y="330.67" width="400" height="1.33" style="fill: rgb(174,28,40); fill-opacity: 1.0" transform="matrix(1,0,0,1,0,0)" /><rect x="0" y="329.33" width="400" height="1.33" style="fill: rgb(174,28,40); fill-opacity: 1.0" transform="matrix(1,0,0,1,0,0)" /><rect x="0" y="328" width="400" height="1.33" style="fill: rgb(33,70,139); fill-opacity: 1.0" transform="matrix(1,0,0,1,0,0)" /><rect x="0" y="326.67" width="400" height="1.33" style="fill: rgb(255,255,255); fill-opacity: 1.0" transform="matrix(1,0,0,1,0,0)" /><rect x="0" y="325.33" width="400" height="1.33" style="fill: rgb(174,28,40); fill-opacity: 1.0" transform="matrix(1,0,0,1,0,0)" /><rect x="0" y="324" width="400" height="1.33" style="fill: rgb(174,28,40); fill-opacity: 1.0" transform="matrix(1,0,0,1,0,0)" /><rect x="0" y="322.67" width="400" height="1.33" style="fill: rgb(174,28,40); fill-opacity: 1.0" transform="matrix(1,0,0,1,0,0)" /><rect x="0" y="321.33" width="400" height="1.33" style="fill: rgb(174,28,40); fill-opacity: 1.0" transform="matrix(1,0,0,1,0,0)" /><rect x="0" y="320" width="400" height="1.33" style="fill: rgb(33,70,139); fill-opacity: 1.0" transform="matrix(1,0,0,1,0,0)" /><rect x="0" y="318.67" width="400" height="1.33" style="fill: rgb(174,28,40); fill-opacity: 1.0" transform="matrix(1,0,0,1,0,0)" /><rect x="0" y="317.33" width="400" height="1.33" style="fill: rgb(174,28,40); fill-opacity: 1.0" transform="matrix(1,0,0,1,0,0)" /><rect x="0" y="316" width="400" height="1.33" style="fill: rgb(174,28,40); fill-opacity: 1.0" transform="matrix(1,0,0,1,0,0)" /><rect x="0" y="314.67" width="400" height="1.33" style="fill: rgb(174,28,40); fill-opacity: 1.0" transform="matrix(1,0,0,1,0,0)" /><rect x="0" y="313.33" width="400" height="1.33" style="fill: rgb(255,255,255); fill-opacity: 1.0" transform="matrix(1,0,0,1,0,0)" /><rect x="0" y="312" width="400" height="1.33" style="fill: rgb(255,255,255); fill-opacity: 1.0" transform="matrix(1,0,0,1,0,0)" /><rect x="0" y="310.67" width="400" height="1.33" style="fill: rgb(174,28,40); fill-opacity: 1.0" transform="matrix(1,0,0,1,0,0)" /><rect x="0" y="309.33" width="400" height="1.33" style="fill: rgb(255,255,255); fill-opacity: 1.0" transform="matrix(1,0,0,1,0,0)" /><rect x="0" y="308" width="400" height="1.33" style="fill: rgb(174,28,40); fill-opacity: 1.0" transform="matrix(1,0,0,1,0,0)" /><rect x="0" y="306.67" width="400" height="1.33" style="fill: rgb(174,28,40); fill-opacity: 1.0" transform="matrix(1,0,0,1,0,0)" /><rect x="0" y="305.33" width="400" height="1.33" style="fill: rgb(255,255,255); fill-opacity: 1.0" transform="matrix(1,0,0,1,0,0)" /><rect x="0" y="304" width="400" height="1.33" style="fill: rgb(33,70,139); fill-opacity: 1.0" transform="matrix(1,0,0,1,0,0)" /><rect x="0" y="302.67" width="400" height="1.33" style="fill: rgb(33,70,139); fill-opacity: 1.0" transform="matrix(1,0,0,1,0,0)" /><rect x="0" y="301.33" width="400" height="1.33" style="fill: rgb(33,70,139); fill-opacity: 1.0" transform="matrix(1,0,0,1,0,0)" /><rect x="0" y="300" width="400" height="1.33" style="fill: rgb(255,255,255); fill-opacity: 1.0" transform="matrix(1,0,0,1,0,0)" /><rect x="0" y="298.67" width="400" height="1.33" style="fill: rgb(174,28,40); fill-opacity: 1.0" transform="matrix(1,0,0,1,0,0)" /><rect x="0" y="297.33" width="400" height="1.33" style="fill: rgb(174,28,40); fill-opacity: 1.0" transform="matrix(1,0,0,1,0,0)" /><rect x="0" y="296" width="400" height="1.33" style="fill: rgb(174,28,40); fill-opacity: 1.0" transform="matrix(1,0,0,1,0,0)" /><rect x="0" y="294.67" width="400" height="1.33" style="fill: rgb(255,255,255); fill-opacity: 1.0" transform="matrix(1,0,0,1,0,0)" /><rect x="0" y="293.33" width="400" height="1.33" style="fill: rgb(33,70,139); fill-opacity: 1.0" transform="matrix(1,0,0,1,0,0)" /><rect x="0" y="292" width="400" height="1.33" style="fill: rgb(33,70,139); fill-opacity: 1.0" transform="matrix(1,0,0,1,0,0)" /><rect x="0" y="290.67" width="400" height="1.33" style="fill: rgb(174,28,40); fill-opacity: 1.0" transform="matrix(1,0,0,1,0,0)" /><rect x="0" y="289.33" width="400" height="1.33" style="fill: rgb(33,70,139); fill-opacity: 1.0" transform="matrix(1,0,0,1,0,0)" /><rect x="0" y="288" width="400" height="1.33" style="fill: rgb(33,70,139); fill-opacity: 1.0" transform="matrix(1,0,0,1,0,0)" /><rect x="0" y="286.67" width="400" height="1.33" style="fill: rgb(255,255,255); fill-opacity: 1.0" transform="matrix(1,0,0,1,0,0)" /><rect x="0" y="285.33" width="400" height="1.33" style="fill: rgb(33,70,139); fill-opacity: 1.0" transform="matrix(1,0,0,1,0,0)" /><rect x="0" y="284" width="400" height="1.33" style="fill: rgb(174,28,40); fill-opacity: 1.0" transform="matrix(1,0,0,1,0,0)" /><rect x="0" y="282.67" width="400" height="1.33" style="fill: rgb(33,70,139); fill-opacity: 1.0" transform="matrix(1,0,0,1,0,0)" /><rect x="0" y="281.33" width="400" height="1.33" style="fill: rgb(33,70,139); fill-opacity: 1.0" transform="matrix(1,0,0,1,0,0)" /><rect x="0" y="280" width="400" height="1.33" style="fill: rgb(255,255,255); fill-opacity: 1.0" transform="matrix(1,0,0,1,0,0)" /><rect x="0" y="278.67" width="400" height="1.33" style="fill: rgb(174,28,40); fill-opacity: 1.0" transform="matrix(1,0,0,1,0,0)" /><rect x="0" y="277.33" width="400" height="1.33" style="fill: rgb(33,70,139); fill-opacity: 1.0" transform="matrix(1,0,0,1,0,0)" /><rect x="0" y="276" width="400" height="1.33" style="fill: rgb(174,28,40); fill-opacity: 1.0" transform="matrix(1,0,0,1,0,0)" /><rect x="0" y="274.67" width="400" height="1.33" style="fill: rgb(255,255,255); fill-opacity: 1.0" transform="matrix(1,0,0,1,0,0)" /><rect x="0" y="273.33" width="400" height="1.33" style="fill: rgb(174,28,40); fill-opacity: 1.0" transform="matrix(1,0,0,1,0,0)" /><rect x="0" y="272" width="400" height="1.33" style="fill: rgb(33,70,139); fill-opacity: 1.0" transform="matrix(1,0,0,1,0,0)" /><rect x="0" y="270.67" width="400" height="1.33" style="fill: rgb(255,255,255); fill-opacity: 1.0" transform="matrix(1,0,0,1,0,0)" /><rect x="0" y="269.33" width="400" height="1.33" style="fill: rgb(255,255,255); fill-opacity: 1.0" transform="matrix(1,0,0,1,0,0)" /><rect x="0" y="268" width="400" height="1.33" style="fill: rgb(255,255,255); fill-opacity: 1.0" transform="matrix(1,0,0,1,0,0)" /><rect x="0" y="266.67" width="400" height="1.33" style="fill: rgb(255,255,255); fill-opacity: 1.0" transform="matrix(1,0,0,1,0,0)" /><rect x="0" y="265.33" width="400" height="1.33" style="fill: rgb(255,255,255); fill-opacity: 1.0" transform="matrix(1,0,0,1,0,0)" /><rect x="0" y="264" width="400" height="1.33" style="fill: rgb(255,255,255); fill-opacity: 1.0" transform="matrix(1,0,0,1,0,0)" /><rect x="0" y="262.67" width="400" height="1.33" style="fill: rgb(174,28,40); fill-opacity: 1.0" transform="matrix(1,0,0,1,0,0)" /><rect x="0" y="261.33" width="400" height="1.33" style="fill: rgb(33,70,139); fill-opacity: 1.0" transform="matrix(1,0,0,1,0,0)" /><rect x="0" y="260" width="400" height="1.33" style="fill: rgb(33,70,139); fill-opacity: 1.0" transform="matrix(1,0,0,1,0,0)" /><rect x="0" y="258.67" width="400" height="1.33" style="fill: rgb(174,28,40); fill-opacity: 1.0" transform="matrix(1,0,0,1,0,0)" /><rect x="0" y="257.33" width="400" height="1.33" style="fill: rgb(174,28,40); fill-opacity: 1.0" transform="matrix(1,0,0,1,0,0)" /><rect x="0" y="256" width="400" height="1.33" style="fill: rgb(255,255,255); fill-opacity: 1.0" transform="matrix(1,0,0,1,0,0)" /><rect x="0" y="254.67" width="400" height="1.33" style="fill: rgb(33,70,139); fill-opacity: 1.0" transform="matrix(1,0,0,1,0,0)" /><rect x="0" y="253.33" width="400" height="1.33" style="fill: rgb(255,255,255); fill-opacity: 1.0" transform="matrix(1,0,0,1,0,0)" /><rect x="0" y="252" width="400" height="1.33" style="fill: rgb(174,28,40); fill-opacity: 1.0" transform="matrix(1,0,0,1,0,0)" /><rect x="0" y="250.67" width="400" height="1.33" style="fill: rgb(33,70,139); fill-opacity: 1.0" transform="matrix(1,0,0,1,0,0)" /><rect x="0" y="249.33" width="400" height="1.33" style="fill: rgb(33,70,139); fill-opacity: 1.0" transform="matrix(1,0,0,1,0,0)" /><rect x="0" y="248" width="400" height="1.33" style="fill: rgb(33,70,139); fill-opacity: 1.0" transform="matrix(1,0,0,1,0,0)" /><rect x="0" y="246.67" width="400" height="1.33" style="fill: rgb(174,28,40); fill-opacity: 1.0" transform="matrix(1,0,0,1,0,0)" /><rect x="0" y="245.33" width="400" height="1.33" style="fill: rgb(33,70,139); fill-opacity: 1.0" transform="matrix(1,0,0,1,0,0)" /><rect x="0" y="244" width="400" height="1.33" style="fill: rgb(255,255,255); fill-opacity: 1.0" transform="matrix(1,0,0,1,0,0)" /><rect x="0" y="242.67" width="400" height="1.33" style="fill: rgb(174,28,40); fill-opacity: 1.0" transform="matrix(1,0,0,1,0,0)" /><rect x="0" y="241.33" width="400" height="1.33" style="fill: rgb(255,255,255); fill-opacity: 1.0" transform="matrix(1,0,0,1,0,0)" /><rect x="0" y="240" width="400" height="1.33" style="fill: rgb(255,255,255); fill-opacity: 1.0" transform="matrix(1,0,0,1,0,0)" /><rect x="0" y="238.67" width="400" height="1.33" style="fill: rgb(174,28,40); fill-opacity: 1.0" transform="matrix(1,0,0,1,0,0)" /><rect x="0" y="237.33" width="400" height="1.33" style="fill: rgb(174,28,40); fill-opacity: 1.0" transform="matrix(1,0,0,1,0,0)" /><rect x="0" y="236" width="400" height="1.33" style="fill: rgb(174,28,40); fill-opacity: 1.0" transform="matrix(1,0,0,1,0,0)" /><rect x="0" y="234.67" width="400" height="1.33" style="fill: rgb(255,255,255); fill-opacity: 1.0" transform="matrix(1,0,0,1,0,0)" /><rect x="0" y="233.33" width="400" height="1.33" style="fill: rgb(255,255,255); fill-opacity: 1.0" transform="matrix(1,0,0,1,0,0)" /><rect x="0" y="232" width="400" height="1.33" style="fill: rgb(33,70,139); fill-opacity: 1.0" transform="matrix(1,0,0,1,0,0)" /><rect x="0" y="230.67" width="400" height="1.33" style="fill: rgb(255,255,255); fill-opacity: 1.0" transform="matrix(1,0,0,1,0,0)" /><rect x="0" y="229.33" width="400" height="1.33" style="fill: rgb(174,28,40); fill-opacity: 1.0" transform="matrix(1,0,0,1,0,0)" /><rect x="0" y="228" width="400" height="1.33" style="fill: rgb(255,255,255); fill-opacity: 1.0" transform="matrix(1,0,0,1,0,0)" /><rect x="0" y="226.67" width="400" height="1.33" style="fill: rgb(33,70,139); fill-opacity: 1.0" transform="matrix(1,0,0,1,0,0)" /><rect x="0" y="225.33" width="400" height="1.33" style="fill: rgb(174,28,40); fill-opacity: 1.0" transform="matrix(1,0,0,1,0,0)" /><rect x="0" y="224" width="400" height="1.33" style="fill: rgb(255,255,255); fill-opacity: 1.0" transform="matrix(1,0,0,1,0,0)" /><rect x="0" y="222.67" width="400" height="1.33" style="fill: rgb(174,28,40); fill-opacity: 1.0" transform="matrix(1,0,0,1,0,0)" /><rect x="0" y="221.33" width="400" height="1.33" style="fill: rgb(174,28,40); fill-opacity: 1.0" transform="matrix(1,0,0,1,0,0)" /><rect x="0" y="220" width="400" height="1.33" style="fill: rgb(255,255,255); fill-opacity: 1.0" transform="matrix(1,0,0,1,0,0)" /><rect x="0" y="218.67" width="400" height="1.33" style="fill: rgb(33,70,139); fill-opacity: 1.0" transform="matrix(1,0,0,1,0,0)" /><rect x="0" y="217.33" width="400" height="1.33" style="fill: rgb(174,28,40); fill-opacity: 1.0" transform="matrix(1,0,0,1,0,0)" /><rect x="0" y="216" width="400" height="1.33" style="fill: rgb(33,70,139); fill-opacity: 1.0" transform="matrix(1,0,0,1,0,0)" /><rect x="0" y="214.67" width="400" height="1.33" style="fill: rgb(33,70,139); fill-opacity: 1.0" transform="matrix(1,0,0,1,0,0)" /><rect x="0" y="213.33" width="400" height="1.33" style="fill: rgb(174,28,40); fill-opacity: 1.0" transform="matrix(1,0,0,1,0,0)" /><rect x="0" y="212" width="400" height="1.33" style="fill: rgb(174,28,40); fill-opacity: 1.0" transform="matrix(1,0,0,1,0,0)" /><rect x="0" y="210.67" width="400" height="1.33" style="fill: rgb(33,70,139); fill-opacity: 1.0" transform="matrix(1,0,0,1,0,0)" /><rect x="0" y="209.33" width="400" height="1.33" style="fill: rgb(255,255,255); fill-opacity: 1.0" transform="matrix(1,0,0,1,0,0)" /><rect x="0" y="208" width="400" height="1.33" style="fill: rgb(33,70,139); fill-opacity: 1.0" transform="matrix(1,0,0,1,0,0)" /><rect x="0" y="206.67" width="400" height="1.33" style="fill: rgb(33,70,139); fill-opacity: 1.0" transform="matrix(1,0,0,1,0,0)" /><rect x="0" y="205.33" width="400" height="1.33" style="fill: rgb(174,28,40); fill-opacity: 1.0" transform="matrix(1,0,0,1,0,0)" /><rect x="0" y="204" width="400" height="1.33" style="fill: rgb(255,255,255); fill-opacity: 1.0" transform="matrix(1,0,0,1,0,0)" /><rect x="0" y="202.67" width="400" height="1.33" style="fill: rgb(255,255,255); fill-opacity: 1.0" transform="matrix(1,0,0,1,0,0)" /><rect x="0" y="201.33" width="400" height="1.33" style="fill: rgb(174,28,40); fill-opacity: 1.0" transform="matrix(1,0,0,1,0,0)" /><rect x="0" y="200" width="400" height="1.33" style="fill: rgb(255,255,255); fill-opacity: 1.0" transform="matrix(1,0,0,1,0,0)" /><rect x="0" y="198.67" width="400" height="1.33" style="fill: rgb(33,70,139); fill-opacity: 1.0" transform="matrix(1,0,0,1,0,0)" /><rect x="0" y="197.33" width="400" height="1.33" style="fill: rgb(255,255,255); fill-opacity: 1.0" transform="matrix(1,0,0,1,0,0)" /><rect x="0" y="196" width="400" height="1.33" style="fill: rgb(33,70,139); fill-opacity: 1.0" transform="matrix(1,0,0,1,0,0)" /><rect x="0" y="194.67" width="400" height="1.33" style="fill: rgb(174,28,40); fill-opacity: 1.0" transform="matrix(1,0,0,1,0,0)" /><rect x="0" y="193.33" width="400" height="1.33" style="fill: rgb(33,70,139); fill-opacity: 1.0" transform="matrix(1,0,0,1,0,0)" /><rect x="0" y="192" width="400" height="1.33" style="fill: rgb(33,70,139); fill-opacity: 1.0" transform="matrix(1,0,0,1,0,0)" /><rect x="0" y="190.67" width="400" height="1.33" style="fill: rgb(33,70,139); fill-opacity: 1.0" transform="matrix(1,0,0,1,0,0)" /><rect x="0" y="189.33" width="400" height="1.33" style="fill: rgb(33,70,139); fill-opacity: 1.0" transform="matrix(1,0,0,1,0,0)" /><rect x="0" y="188" width="400" height="1.33" style="fill: rgb(174,28,40); fill-opacity: 1.0" transform="matrix(1,0,0,1,0,0)" /><rect x="0" y="186.67" width="400" height="1.33" style="fill: rgb(33,70,139); fill-opacity: 1.0" transform="matrix(1,0,0,1,0,0)" /><rect x="0" y="185.33" width="400" height="1.33" style="fill: rgb(33,70,139); fill-opacity: 1.0" transform="matrix(1,0,0,1,0,0)" /><rect x="0" y="184" width="400" height="1.33" style="fill: rgb(174,28,40); fill-opacity: 1.0" transform="matrix(1,0,0,1,0,0)" /><rect x="0" y="182.67" width="400" height="1.33" style="fill: rgb(255,255,255); fill-opacity: 1.0" transform="matrix(1,0,0,1,0,0)" /><rect x="0" y="181.33" width="400" height="1.33" style="fill: rgb(33,70,139); fill-opacity: 1.0" transform="matrix(1,0,0,1,0,0)" /><rect x="0" y="180" width="400" height="1.33" style="fill: rgb(255,255,255); fill-opacity: 1.0" transform="matrix(1,0,0,1,0,0)" /><rect x="0" y="178.67" width="400" height="1.33" style="fill: rgb(33,70,139); fill-opacity: 1.0" transform="matrix(1,0,0,1,0,0)" /><rect x="0" y="177.33" width="400" height="1.33" style="fill: rgb(33,70,139); fill-opacity: 1.0" transform="matrix(1,0,0,1,0,0)" /><rect x="0" y="176" width="400" height="1.33" style="fill: rgb(174,28,40); fill-opacity: 1.0" transform="matrix(1,0,0,1,0,0)" /><rect x="0" y="174.67" width="400" height="1.33" style="fill: rgb(255,255,255); fill-opacity: 1.0" transform="matrix(1,0,0,1,0,0)" /><rect x="0" y="173.33" width="400" height="1.33" style="fill: rgb(174,28,40); fill-opacity: 1.0" transform="matrix(1,0,0,1,0,0)" /><rect x="0" y="172" width="400" height="1.33" style="fill: rgb(255,255,255); fill-opacity: 1.0" transform="matrix(1,0,0,1,0,0)" /><rect x="0" y="170.67" width="400" height="1.33" style="fill: rgb(255,255,255); fill-opacity: 1.0" transform="matrix(1,0,0,1,0,0)" /><rect x="0" y="169.33" width="400" height="1.33" style="fill: rgb(33,70,139); fill-opacity: 1.0" transform="matrix(1,0,0,1,0,0)" /><rect x="0" y="168" width="400" height="1.33" style="fill: rgb(255,255,255); fill-opacity: 1.0" transform="matrix(1,0,0,1,0,0)" /><rect x="0" y="166.67" width="400" height="1.33" style="fill: rgb(174,28,40); fill-opacity: 1.0" transform="matrix(1,0,0,1,0,0)" /><rect x="0" y="165.33" width="400" height="1.33" style="fill: rgb(33,70,139); fill-opacity: 1.0" transform="matrix(1,0,0,1,0,0)" /><rect x="0" y="164" width="400" height="1.33" style="fill: rgb(174,28,40); fill-opacity: 1.0" transform="matrix(1,0,0,1,0,0)" /><rect x="0" y="162.67" width="400" height="1.33" style="fill: rgb(33,70,139); fill-opacity: 1.0" transform="matrix(1,0,0,1,0,0)" /><rect x="0" y="161.33" width="400" height="1.33" style="fill: rgb(33,70,139); fill-opacity: 1.0" transform="matrix(1,0,0,1,0,0)" /><rect x="0" y="160" width="400" height="1.33" style="fill: rgb(174,28,40); fill-opacity: 1.0" transform="matrix(1,0,0,1,0,0)" /><rect x="0" y="158.67" width="400" height="1.33" style="fill: rgb(33,70,139); fill-opacity: 1.0" transform="matrix(1,0,0,1,0,0)" /><rect x="0" y="157.33" width="400" height="1.33" style="fill: rgb(33,70,139); fill-opacity: 1.0" transform="matrix(1,0,0,1,0,0)" /><rect x="0" y="156" width="400" height="1.33" style="fill: rgb(33,70,139); fill-opacity: 1.0" transform="matrix(1,0,0,1,0,0)" /><rect x="0" y="154.67" width="400" height="1.33" style="fill: rgb(33,70,139); fill-opacity: 1.0" transform="matrix(1,0,0,1,0,0)" /><rect x="0" y="153.33" width="400" height="1.33" style="fill: rgb(255,255,255); fill-opacity: 1.0" transform="matrix(1,0,0,1,0,0)" /><rect x="0" y="152" width="400" height="1.33" style="fill: rgb(174,28,40); fill-opacity: 1.0" transform="matrix(1,0,0,1,0,0)" /><rect x="0" y="150.67" width="400" height="1.33" style="fill: rgb(33,70,139); fill-opacity: 1.0" transform="matrix(1,0,0,1,0,0)" /><rect x="0" y="149.33" width="400" height="1.33" style="fill: rgb(255,255,255); fill-opacity: 1.0" transform="matrix(1,0,0,1,0,0)" /><rect x="0" y="148" width="400" height="1.33" style="fill: rgb(33,70,139); fill-opacity: 1.0" transform="matrix(1,0,0,1,0,0)" /><rect x="0" y="146.67" width="400" height="1.33" style="fill: rgb(255,255,255); fill-opacity: 1.0" transform="matrix(1,0,0,1,0,0)" /><rect x="0" y="145.33" width="400" height="1.33" style="fill: rgb(33,70,139); fill-opacity: 1.0" transform="matrix(1,0,0,1,0,0)" /><rect x="0" y="144" width="400" height="1.33" style="fill: rgb(174,28,40); fill-opacity: 1.0" transform="matrix(1,0,0,1,0,0)" /><rect x="0" y="142.67" width="400" height="1.33" style="fill: rgb(255,255,255); fill-opacity: 1.0" transform="matrix(1,0,0,1,0,0)" /><rect x="0" y="141.33" width="400" height="1.33" style="fill: rgb(174,28,40); fill-opacity: 1.0" transform="matrix(1,0,0,1,0,0)" /><rect x="0" y="140" width="400" height="1.33" style="fill: rgb(255,255,255); fill-opacity: 1.0" transform="matrix(1,0,0,1,0,0)" /><rect x="0" y="138.67" width="400" height="1.33" style="fill: rgb(174,28,40); fill-opacity: 1.0" transform="matrix(1,0,0,1,0,0)" /><rect x="0" y="137.33" width="400" height="1.33" style="fill: rgb(255,255,255); fill-opacity: 1.0" transform="matrix(1,0,0,1,0,0)" /><rect x="0" y="136" width="400" height="1.33" style="fill: rgb(255,255,255); fill-opacity: 1.0" transform="matrix(1,0,0,1,0,0)" /><rect x="0" y="134.67" width="400" height="1.33" style="fill: rgb(33,70,139); fill-opacity: 1.0" transform="matrix(1,0,0,1,0,0)" /><rect x="0" y="133.33" width="400" height="1.33" style="fill: rgb(174,28,40); fill-opacity: 1.0" transform="matrix(1,0,0,1,0,0)" /><rect x="0" y="132" width="400" height="1.33" style="fill: rgb(33,70,139); fill-opacity: 1.0" transform="matrix(1,0,0,1,0,0)" /><rect x="0" y="130.67" width="400" height="1.33" style="fill: rgb(33,70,139); fill-opacity: 1.0" transform="matrix(1,0,0,1,0,0)" /><rect x="0" y="129.33" width="400" height="1.33" style="fill: rgb(174,28,40); fill-opacity: 1.0" transform="matrix(1,0,0,1,0,0)" /><rect x="0" y="128" width="400" height="1.33" style="fill: rgb(174,28,40); fill-opacity: 1.0" transform="matrix(1,0,0,1,0,0)" /><rect x="0" y="126.67" width="400" height="1.33" style="fill: rgb(174,28,40); fill-opacity: 1.0" transform="matrix(1,0,0,1,0,0)" /><rect x="0" y="125.33" width="400" height="1.33" style="fill: rgb(33,70,139); fill-opacity: 1.0" transform="matrix(1,0,0,1,0,0)" /><rect x="0" y="124" width="400" height="1.33" style="fill: rgb(33,70,139); fill-opacity: 1.0" transform="matrix(1,0,0,1,0,0)" /><rect x="0" y="122.67" width="400" height="1.33" style="fill: rgb(255,255,255); fill-opacity: 1.0" transform="matrix(1,0,0,1,0,0)" /><rect x="0" y="121.33" width="400" height="1.33" style="fill: rgb(174,28,40); fill-opacity: 1.0" transform="matrix(1,0,0,1,0,0)" /><rect x="0" y="120" width="400" height="1.33" style="fill: rgb(33,70,139); fill-opacity: 1.0" transform="matrix(1,0,0,1,0,0)" /><rect x="0" y="118.67" width="400" height="1.33" style="fill: rgb(33,70,139); fill-opacity: 1.0" transform="matrix(1,0,0,1,0,0)" /><rect x="0" y="117.33" width="400" height="1.33" style="fill: rgb(33,70,139); fill-opacity: 1.0" transform="matrix(1,0,0,1,0,0)" /><rect x="0" y="116" width="400" height="1.33" style="fill: rgb(174,28,40); fill-opacity: 1.0" transform="matrix(1,0,0,1,0,0)" /><rect x="0" y="114.67" width="400" height="1.33" style="fill: rgb(174,28,40); fill-opacity: 1.0" transform="matrix(1,0,0,1,0,0)" /><rect x="0" y="113.33" width="400" height="1.33" style="fill: rgb(255,255,255); fill-opacity: 1.0" transform="matrix(1,0,0,1,0,0)" /><rect x="0" y="112" width="400" height="1.33" style="fill: rgb(255,255,255); fill-opacity: 1.0" transform="matrix(1,0,0,1,0,0)" /><rect x="0" y="110.67" width="400" height="1.33" style="fill: rgb(174,28,40); fill-opacity: 1.0" transform="matrix(1,0,0,1,0,0)" /><rect x="0" y="109.33" width="400" height="1.33" style="fill: rgb(255,255,255); fill-opacity: 1.0" transform="matrix(1,0,0,1,0,0)" /><rect x="0" y="108" width="400" height="1.33" style="fill: rgb(255,255,255); fill-opacity: 1.0" transform="matrix(1,0,0,1,0,0)" /><rect x="0" y="106.67" width="400" height="1.33" style="fill: rgb(255,255,255); fill-opacity: 1.0" transform="matrix(1,0,0,1,0,0)" /><rect x="0" y="105.33" width="400" height="1.33" style="fill: rgb(255,255,255); fill-opacity: 1.0" transform="matrix(1,0,0,1,0,0)" /><rect x="0" y="104" width="400" height="1.33" style="fill: rgb(33,70,139); fill-opacity: 1.0" transform="matrix(1,0,0,1,0,0)" /><rect x="0" y="102.67" width="400" height="1.33" style="fill: rgb(174,28,40); fill-opacity: 1.0" transform="matrix(1,0,0,1,0,0)" /><rect x="0" y="101.33" width="400" height="1.33" style="fill: rgb(174,28,40); fill-opacity: 1.0" transform="matrix(1,0,0,1,0,0)" /><rect x="0" y="100" width="400" height="1.33" style="fill: rgb(33,70,139); fill-opacity: 1.0" transform="matrix(1,0,0,1,0,0)" /><rect x="0" y="98.67" width="400" height="1.33" style="fill: rgb(255,255,255); fill-opacity: 1.0" transform="matrix(1,0,0,1,0,0)" /><rect x="0" y="97.33" width="400" height="1.33" style="fill: rgb(174,28,40); fill-opacity: 1.0" transform="matrix(1,0,0,1,0,0)" /><rect x="0" y="96" width="400" height="1.33" style="fill: rgb(174,28,40); fill-opacity: 1.0" transform="matrix(1,0,0,1,0,0)" /><rect x="0" y="94.67" width="400" height="1.33" style="fill: rgb(174,28,40); fill-opacity: 1.0" transform="matrix(1,0,0,1,0,0)" /><rect x="0" y="93.33" width="400" height="1.33" style="fill: rgb(255,255,255); fill-opacity: 1.0" transform="matrix(1,0,0,1,0,0)" /><rect x="0" y="92" width="400" height="1.33" style="fill: rgb(33,70,139); fill-opacity: 1.0" transform="matrix(1,0,0,1,0,0)" /><rect x="0" y="90.67" width="400" height="1.33" style="fill: rgb(255,255,255); fill-opacity: 1.0" transform="matrix(1,0,0,1,0,0)" /><rect x="0" y="89.33" width="400" height="1.33" style="fill: rgb(255,255,255); fill-opacity: 1.0" transform="matrix(1,0,0,1,0,0)" /><rect x="0" y="88" width="400" height="1.33" style="fill: rgb(174,28,40); fill-opacity: 1.0" transform="matrix(1,0,0,1,0,0)" /><rect x="0" y="86.67" width="400" height="1.33" style="fill: rgb(174,28,40); fill-opacity: 1.0" transform="matrix(1,0,0,1,0,0)" /><rect x="0" y="85.33" width="400" height="1.33" style="fill: rgb(33,70,139); fill-opacity: 1.0" transform="matrix(1,0,0,1,0,0)" /><rect x="0" y="84" width="400" height="1.33" style="fill: rgb(255,255,255); fill-opacity: 1.0" transform="matrix(1,0,0,1,0,0)" /><rect x="0" y="82.67" width="400" height="1.33" style="fill: rgb(174,28,40); fill-opacity: 1.0" transform="matrix(1,0,0,1,0,0)" /><rect x="0" y="81.33" width="400" height="1.33" style="fill: rgb(33,70,139); fill-opacity: 1.0" transform="matrix(1,0,0,1,0,0)" /><rect x="0" y="80" width="400" height="1.33" style="fill: rgb(255,255,255); fill-opacity: 1.0" transform="matrix(1,0,0,1,0,0)" /><rect x="0" y="78.67" width="400" height="1.33" style="fill: rgb(174,28,40); fill-opacity: 1.0" transform="matrix(1,0,0,1,0,0)" /><rect x="0" y="77.33" width="400" height="1.33" style="fill: rgb(33,70,139); fill-opacity: 1.0" transform="matrix(1,0,0,1,0,0)" /><rect x="0" y="76" width="400" height="1.33" style="fill: rgb(33,70,139); fill-opacity: 1.0" transform="matrix(1,0,0,1,0,0)" /><rect x="0" y="74.67" width="400" height="1.33" style="fill: rgb(255,255,255); fill-opacity: 1.0" transform="matrix(1,0,0,1,0,0)" /><rect x="0" y="73.33" width="400" height="1.33" style="fill: rgb(255,255,255); fill-opacity: 1.0" transform="matrix(1,0,0,1,0,0)" /><rect x="0" y="72" width="400" height="1.33" style="fill: rgb(33,70,139); fill-opacity: 1.0" transform="matrix(1,0,0,1,0,0)" /><rect x="0" y="70.67" width="400" height="1.33" style="fill: rgb(33,70,139); fill-opacity: 1.0" transform="matrix(1,0,0,1,0,0)" /><rect x="0" y="69.33" width="400" height="1.33" style="fill: rgb(255,255,255); fill-opacity: 1.0" transform="matrix(1,0,0,1,0,0)" /><rect x="0" y="68" width="400" height="1.33" style="fill: rgb(33,70,139); fill-opacity: 1.0" transform="matrix(1,0,0,1,0,0)" /><rect x="0" y="66.67" width="400" height="1.33" style="fill: rgb(255,255,255); fill-opacity: 1.0" transform="matrix(1,0,0,1,0,0)" /><rect x="0" y="65.33" width="400" height="1.33" style="fill: rgb(33,70,139); fill-opacity: 1.0" transform="matrix(1,0,0,1,0,0)" /><rect x="0" y="64" width="400" height="1.33" style="fill: rgb(255,255,255); fill-opacity: 1.0" transform="matrix(1,0,0,1,0,0)" /><rect x="0" y="62.67" width="400" height="1.33" style="fill: rgb(255,255,255); fill-opacity: 1.0" transform="matrix(1,0,0,1,0,0)" /><rect x="0" y="61.33" width="400" height="1.33" style="fill: rgb(33,70,139); fill-opacity: 1.0" transform="matrix(1,0,0,1,0,0)" /><rect x="0" y="60" width="400" height="1.33" style="fill: rgb(174,28,40); fill-opacity: 1.0" transform="matrix(1,0,0,1,0,0)" /><rect x="0" y="58.67" width="400" height="1.33" style="fill: rgb(174,28,40); fill-opacity: 1.0" transform="matrix(1,0,0,1,0,0)" /><rect x="0" y="57.33" width="400" height="1.33" style="fill: rgb(33,70,139); fill-opacity: 1.0" transform="matrix(1,0,0,1,0,0)" /><rect x="0" y="56" width="400" height="1.33" style="fill: rgb(174,28,40); fill-opacity: 1.0" transform="matrix(1,0,0,1,0,0)" /><rect x="0" y="54.67" width="400" height="1.33" style="fill: rgb(174,28,40); fill-opacity: 1.0" transform="matrix(1,0,0,1,0,0)" /><rect x="0" y="53.33" width="400" height="1.33" style="fill: rgb(174,28,40); fill-opacity: 1.0" transform="matrix(1,0,0,1,0,0)" /><rect x="0" y="52" width="400" height="1.33" style="fill: rgb(255,255,255); fill-opacity: 1.0" transform="matrix(1,0,0,1,0,0)" /><rect x="0" y="50.67" width="400" height="1.33" style="fill: rgb(255,255,255); fill-opacity: 1.0" transform="matrix(1,0,0,1,0,0)" /><rect x="0" y="49.33" width="400" height="1.33" style="fill: rgb(255,255,255); fill-opacity: 1.0" transform="matrix(1,0,0,1,0,0)" /><rect x="0" y="48" width="400" height="1.33" style="fill: rgb(33,70,139); fill-opacity: 1.0" transform="matrix(1,0,0,1,0,0)" /><rect x="0" y="46.67" width="400" height="1.33" style="fill: rgb(33,70,139); fill-opacity: 1.0" transform="matrix(1,0,0,1,0,0)" /><rect x="0" y="45.33" width="400" height="1.33" style="fill: rgb(174,28,40); fill-opacity: 1.0" transform="matrix(1,0,0,1,0,0)" /><rect x="0" y="44" width="400" height="1.33" style="fill: rgb(33,70,139); fill-opacity: 1.0" transform="matrix(1,0,0,1,0,0)" /><rect x="0" y="42.67" width="400" height="1.33" style="fill: rgb(174,28,40); fill-opacity: 1.0" transform="matrix(1,0,0,1,0,0)" /><rect x="0" y="41.33" width="400" height="1.33" style="fill: rgb(255,255,255); fill-opacity: 1.0" transform="matrix(1,0,0,1,0,0)" /><rect x="0" y="40" width="400" height="1.33" style="fill: rgb(33,70,139); fill-opacity: 1.0" transform="matrix(1,0,0,1,0,0)" /><rect x="0" y="38.67" width="400" height="1.33" style="fill: rgb(33,70,139); fill-opacity: 1.0" transform="matrix(1,0,0,1,0,0)" /><rect x="0" y="37.33" width="400" height="1.33" style="fill: rgb(33,70,139); fill-opacity: 1.0" transform="matrix(1,0,0,1,0,0)" /><rect x="0" y="36" width="400" height="1.33" style="fill: rgb(33,70,139); fill-opacity: 1.0" transform="matrix(1,0,0,1,0,0)" /><rect x="0" y="34.67" width="400" height="1.33" style="fill: rgb(255,255,255); fill-opacity: 1.0" transform="matrix(1,0,0,1,0,0)" /><rect x="0" y="33.33" width="400" height="1.33" style="fill: rgb(174,28,40); fill-opacity: 1.0" transform="matrix(1,0,0,1,0,0)" /><rect x="0" y="32" width="400" height="1.33" style="fill: rgb(174,28,40); fill-opacity: 1.0" transform="matrix(1,0,0,1,0,0)" /><rect x="0" y="30.67" width="400" height="1.33" style="fill: rgb(33,70,139); fill-opacity: 1.0" transform="matrix(1,0,0,1,0,0)" /><rect x="0" y="29.33" width="400" height="1.33" style="fill: rgb(255,255,255); fill-opacity: 1.0" transform="matrix(1,0,0,1,0,0)" /><rect x="0" y="28" width="400" height="1.33" style="fill: rgb(255,255,255); fill-opacity: 1.0" transform="matrix(1,0,0,1,0,0)" /><rect x="0" y="26.67" width="400" height="1.33" style="fill: rgb(255,255,255); fill-opacity: 1.0" transform="matrix(1,0,0,1,0,0)" /><rect x="0" y="25.33" width="400" height="1.33" style="fill: rgb(174,28,40); fill-opacity: 1.0" transform="matrix(1,0,0,1,0,0)" /><rect x="0" y="24" width="400" height="1.33" style="fill: rgb(174,28,40); fill-opacity: 1.0" transform="matrix(1,0,0,1,0,0)" /><rect x="0" y="22.67" width="400" height="1.33" style="fill: rgb(33,70,139); fill-opacity: 1.0" transform="matrix(1,0,0,1,0,0)" /><rect x="0" y="21.33" width="400" height="1.33" style="fill: rgb(33,70,139); fill-opacity: 1.0" transform="matrix(1,0,0,1,0,0)" /><rect x="0" y="20" width="400" height="1.33" style="fill: rgb(174,28,40); fill-opacity: 1.0" transform="matrix(1,0,0,1,0,0)" /><rect x="0" y="18.67" width="400" height="1.33" style="fill: rgb(255,255,255); fill-opacity: 1.0" transform="matrix(1,0,0,1,0,0)" /><rect x="0" y="17.33" width="400" height="1.33" style="fill: rgb(174,28,40); fill-opacity: 1.0" transform="matrix(1,0,0,1,0,0)" /><rect x="0" y="16" width="400" height="1.33" style="fill: rgb(174,28,40); fill-opacity: 1.0" transform="matrix(1,0,0,1,0,0)" /><rect x="0" y="14.67" width="400" height="1.33" style="fill: rgb(33,70,139); fill-opacity: 1.0" transform="matrix(1,0,0,1,0,0)" /><rect x="0" y="13.33" width="400" height="1.33" style="fill: rgb(174,28,40); fill-opacity: 1.0" transform="matrix(1,0,0,1,0,0)" /><rect x="0" y="12" width="400" height="1.33" style="fill: rgb(174,28,40); fill-opacity: 1.0" transform="matrix(1,0,0,1,0,0)" /><rect x="0" y="10.67" width="400" height="1.33" style="fill: rgb(174,28,40); fill-opacity: 1.0" transform="matrix(1,0,0,1,0,0)" /><rect x="0" y="9.33" width="400" height="1.33" style="fill: rgb(255,255,255); fill-opacity: 1.0" transform="matrix(1,0,0,1,0,0)" /><rect x="0" y="8" width="400" height="1.33" style="fill: rgb(33,70,139); fill-opacity: 1.0" transform="matrix(1,0,0,1,0,0)" /><rect x="0" y="6.67" width="400" height="1.33" style="fill: rgb(33,70,139); fill-opacity: 1.0" transform="matrix(1,0,0,1,0,0)" /><rect x="0" y="5.33" width="400" height="1.33" style="fill: rgb(33,70,139); fill-opacity: 1.0" transform="matrix(1,0,0,1,0,0)" /><rect x="0" y="4" width="400" height="1.33" style="fill: rgb(33,70,139); fill-opacity: 1.0" transform="matrix(1,0,0,1,0,0)" /><rect x="0" y="2.67" width="400" height="1.33" style="fill: rgb(33,70,139); fill-opacity: 1.0" transform="matrix(1,0,0,1,0,0)" /><rect x="0" y="1.33" width="400" height="1.33" style="fill: rgb(33,70,139); fill-opacity: 1.0" transform="matrix(1,0,0,1,0,0)" /><rect x="0" y="0" width="400" height="1.33" style="fill: rgb(33,70,139); fill-opacity: 1.0" transform="matrix(1,0,0,1,0,0)" /><g transform="matrix(1,0,0,1,0,0)"><text x="0" y="15" style="fill: rgb(255,255,0); fill-opacity: 1.0; font-family: sans-serif; font-size: 12px;" >0 moves</text></g></svg>
