<svg xmlns="http://www.w3.org/2000/svg" xmlns:xlink="http://www.w3.org/1999/xlink" xmlns:jfreesvg="http://www.jfree.org/jfreesvg/svg" width="400" height="400" text-rendering="auto" shape-rendering="auto">
  <defs></defs>
  <rect x="35.5" y="35" width="2" height="145" style="fill: rgb(0,0,0); fill-opacity: 1.0" transform="matrix(1.333333,0,0,1.333333,0,33.333333)" /><rect x="4.5" y="169" width="63" height="10" style="fill: rgb(255,255,0); fill-opacity: 1.0" transform="matrix(1.333333,0,0,1.333333,0,33.333333)" /><rect x="4.5" y="169" width="63" height="10" style="stroke-width: 1.0;stroke: rgb(0,0,0);stroke-opacity: 1.0;stroke-linecap: square;; fill: none" transform="matrix(1.333333,0,0,1.333333,0,33.333333)" /><rect x="9.5" y="158" width="53" height="10" style="fill: rgb(255,255,0); fill-opacity: 1.0" transform="matrix(1.333333,0,0,1.333333,0,33.333333)" /><rect x="9.5" y="158" width="53" height="10" style="stroke-width: 1.0;stroke: rgb(0,0,0);stroke-opacity: 1.0;stroke-linecap: square;; fill: none" transform="matrix(1.333333,0,0,1.333333,0,33.333333)" /><rect x="14.5" y="147" width="43" height="10" style="fill: rgb(255,255,0); fill-opacity: 1.0" transform="matrix(1.333333,0,0,1.333333,0,33.333333)" /><rect x="14.5" y="147" width="43" height="10" style="stroke-width: 1.0;stroke: rgb(0,0,0);stroke-opacity: 1.0;stroke-linecap: square;; fill: none" transform="matrix(1.333333,0,0,1.333333,0,33.333333)" /><rect x="19.5" y="136" width="33" height="10" style="fill: rgb(255,255,0); fill-opacity: 1.0" transform="matrix(1.333333,0,0,1.333333,0,33.333333)" /><rect x="19.5" y="136" width="33" height="10" style="stroke-width: 1.0;stroke: rgb(0,0,0);stroke-opacity: 1.0;stroke-linecap: square;; fill: none" transform="matrix(1.333333,0,0,1.333333,0,33.333333)" /><rect x="24.5" y="125" width="23" height="10" style="fill: rgb(255,255,0); fill-opacity: 1.0" transform="matrix(1.333333,0,0,1.333333,0,33.333333)" /><rect x="24.5" y="125" width="23" height="10" style="stroke-width: 1.0;stroke: rgb(0,0,0);stroke-opacity: 1.0;stroke-linecap: square;; fill: none" transform="matrix(1.333333,0,0,1.333333,0,33.333333)" /><rect x="29.5" y="114" width="13" height="10" style="fill: rgb(255,255,0); fill-opacity: 1.0" transform="matrix(1.333333,0,0,1.333333,0,33.333333)" /><rect x="29.5" y="114" width="13" height="10" style="stroke-width: 1.0;stroke: rgb(0,0,0);stroke-opacity: 1.0;stroke-linecap: square;; fill: none" transform="matrix(1.333333,0,0,1.333333,0,33.333333)" /><rect x="110.5" y="35" width="2" height="145" style="fill: rgb(0,0,0); fill-opacity: 1.0" transform="matrix(1.333333,0,0,1.333333,0,33.333333)" /><rect x="185.5" y="35" width="2" height="145" style="fill: rgb(0,0,0); fill-opacity: 1.0" transform="matrix(1.333333,0,0,1.333333,0,33.333333)" /><rect x="154.5" y="169" width="63" height="10" style="fill: rgb(255,255,255); fill-opacity: 1.0" transform="matrix(1.333333,0,0,1.333333,0,33.333333)" /><rect x="154.5" y="169" width="63" height="10" style="stroke-width: 1.0;stroke: rgb(0,0,0);stroke-opacity: 1.0;stroke-linecap: square;; fill: none" transform="matrix(1.333333,0,0,1.333333,0,33.333333)" /><rect x="159.5" y="158" width="53" height="10" style="fill: rgb(255,255,255); fill-opacity: 1.0" transform="matrix(1.333333,0,0,1.333333,0,33.333333)" /><rect x="159.5" y="158" width="53" height="10" style="stroke-width: 1.0;stroke: rgb(0,0,0);stroke-opacity: 1.0;stroke-linecap: square;; fill: none" transform="matrix(1.333333,0,0,1.333333,0,33.333333)" /><rect x="164.5" y="147" width="43" height="10" style="fill: rgb(255,255,255); fill-opacity: 1.0" transform="matrix(1.333333,0,0,1.333333,0,33.333333)" /><rect x="164.5" y="147" width="43" height="10" style="stroke-width: 1.0;stroke: rgb(0,0,0);stroke-opacity: 1.0;stroke-linecap: square;; fill: none" transform="matrix(1.333333,0,0,1.333333,0,33.333333)" /><rect x="169.5" y="136" width="33" height="10" style="fill: rgb(255,255,255); fill-opacity: 1.0" transform="matrix(1.333333,0,0,1.333333,0,33.333333)" /><rect x="169.5" y="136" width="33" height="10" style="stroke-width: 1.0;stroke: rgb(0,0,0);stroke-opacity: 1.0;stroke-linecap: square;; fill: none" transform="matrix(1.333333,0,0,1.333333,0,33.333333)" /><rect x="174.5" y="125" width="23" height="10" style="fill: rgb(255,255,255); fill-opacity: 1.0" transform="matrix(1.333333,0,0,1.333333,0,33.333333)" /><rect x="174.5" y="125" width="23" height="10" style="stroke-width: 1.0;stroke: rgb(0,0,0);stroke-opacity: 1.0;stroke-linecap: square;; fill: none" transform="matrix(1.333333,0,0,1.333333,0,33.333333)" /><rect x="179.5" y="114" width="13" height="10" style="fill: rgb(255,255,255); fill-opacity: 1.0" transform="matrix(1.333333,0,0,1.333333,0,33.333333)" /><rect x="179.5" y="114" width="13" height="10" style="stroke-width: 1.0;stroke: rgb(0,0,0);stroke-opacity: 1.0;stroke-linecap: square;; fill: none" transform="matrix(1.333333,0,0,1.333333,0,33.333333)" /><rect x="260.5" y="35" width="2" height="145" style="fill: rgb(0,0,0); fill-opacity: 1.0" transform="matrix(1.333333,0,0,1.333333,0,33.333333)" /><g transform="matrix(1.333333,0,0,1.333333,0,33.333333)"><text x="0" y="15" style="fill: rgb(0,0,0); fill-opacity: 1.0; font-family: sans-serif; font-size: 12px;" >0 moves</text></g></svg>