<svg xmlns="http://www.w3.org/2000/svg" xmlns:xlink="http://www.w3.org/1999/xlink" xmlns:jfreesvg="http://www.jfree.org/jfreesvg/svg" width="400" height="400" text-rendering="auto" shape-rendering="auto">
<defs></defs>
<rect x="0" y="0" width="400" height="400" style="fill: rgb(255,255,255); fill-opacity: 1.0" transform="matrix(1,0,0,1,0,0)" /><rect x="132" y="0" width="136" height="80" style="fill: rgb(255,255,0); fill-opacity: 1.0" transform="matrix(1,0,0,1,0,0)" /><rect x="132" y="0" width="136" height="80" style="stroke-width: 1.0;stroke: rgb(0,0,0);stroke-opacity: 1.0;stroke-linecap: square;; fill: none" transform="matrix(1,0,0,1,0,0)" /><rect x="30" y="80" width="340" height="80" style="fill: rgb(255,255,0); fill-opacity: 1.0" transform="matrix(1,0,0,1,0,0)" /><rect x="30" y="80" width="340" height="80" style="stroke-width: 1.0;stroke: rgb(0,0,0);stroke-opacity: 1.0;stroke-linecap: square;; fill: none" transform="matrix(1,0,0,1,0,0)" /><rect x="98" y="160" width="204" height="80" style="fill: rgb(255,255,0); fill-opacity: 1.0" transform="matrix(1,0,0,1,0,0)" /><rect x="98" y="160" width="204" height="80" style="stroke-width: 1.0;stroke: rgb(0,0,0);stroke-opacity: 1.0;stroke-linecap: square;; fill: none" transform="matrix(1,0,0,1,0,0)" /><rect x="64" y="240" width="272" height="80" style="fill: rgb(255,255,0); fill-opacity: 1.0" transform="matrix(1,0,0,1,0,0)" /><rect x="64" y="240" width="272" height="80" style="stroke-width: 1.0;stroke: rgb(0,0,0);stroke-opacity: 1.0;stroke-linecap: square;; fill: none" transform="matrix(1,0,0,1,0,0)" /><rect x="-4" y="320" width="408" height="80" style="fill: rgb(255,255,0); fill-opacity: 1.0" transform="matrix(1,0,0,1,0,0)" /><rect x="-4" y="320" width="408" height="80" style="stroke-width: 1.0;stroke: rgb(0,0,0);stroke-opacity: 1.0;stroke-linecap: square;; fill: none" transform="matrix(1,0,0,1,0,0)" /><ellipse cx="200" cy="240" rx="10" ry="10" style="fill: rgb(255,0,255); fill-opacity: 1.0" transform="matrix(1,0,0,1,0,0)" /><g transform="matrix(1,0,0,1,0,0)"><text x="0" y="15" style="fill: rgb(0,0,0); fill-opacity: 1.0; font-family: sans-serif; font-size: 12px;" >0 moves</text></g></svg>
